<?xml version="1.0" encoding="UTF-8" standalone="no"?>
<svg
   xmlns:dc="http://purl.org/dc/elements/1.1/"
   xmlns:cc="http://creativecommons.org/ns#"
   xmlns:rdf="http://www.w3.org/1999/02/22-rdf-syntax-ns#"
   xmlns:svg="http://www.w3.org/2000/svg"
   xmlns="http://www.w3.org/2000/svg"
   xmlns:xlink="http://www.w3.org/1999/xlink"
   xmlns:sodipodi="http://sodipodi.sourceforge.net/DTD/sodipodi-0.dtd"
   xmlns:inkscape="http://www.inkscape.org/namespaces/inkscape"
   width="79.238113mm"
   height="64.059006mm"
   viewBox="0 0 79.238113 64.059006"
   version="1.1"
   id="svg8"
   inkscape:version="1.0.2 (e86c8708, 2021-01-15)"
   sodipodi:docname="badzupa.svg">
  <defs
     id="defs2">
    <linearGradient
       inkscape:collect="always"
       id="linearGradient923">
      <stop
         style="stop-color:#cccccc;stop-opacity:1;"
         offset="0"
         id="stop919" />
      <stop
         style="stop-color:#cccccc;stop-opacity:0;"
         offset="1"
         id="stop921" />
    </linearGradient>
    <inkscape:perspective
       sodipodi:type="inkscape:persp3d"
       inkscape:vp_x="-291.65237 : 127.83081 : 1"
       inkscape:vp_y="0 : 999.99998 : 0"
       inkscape:vp_z="374.71482 : 102.42036 : 1"
       inkscape:persp3d-origin="105 : -133.941 : 1"
       id="perspective1205" />
    <linearGradient
       id="linearGradient4482">
      <stop
         id="stop4484"
         style="stop-color:#333333"
         offset="0" />
      <stop
         id="stop4486"
         style="stop-color:#000000"
         offset=".5" />
      <stop
         id="stop4488"
         style="stop-color:#333333"
         offset="1" />
    </linearGradient>
    <linearGradient
       id="linearGradient3882"
       inkscape:collect="always">
      <stop
         id="stop3884"
         style="stop-color:#d5bf76"
         offset="0" />
      <stop
         id="stop3886"
         style="stop-color:#fdfdf9"
         offset="1" />
    </linearGradient>
    <linearGradient
       id="linearGradient3827">
      <stop
         id="stop3829"
         style="stop-color:#24280f;stop-opacity:.94472"
         offset="0" />
      <stop
         id="stop3835"
         style="stop-color:#225500"
         offset=".5" />
      <stop
         id="stop3831"
         style="stop-color:#24280f"
         offset="1" />
    </linearGradient>
    <linearGradient
       id="linearGradient4014"
       y2="130.0432"
       gradientUnits="userSpaceOnUse"
       x2="305.58337"
       y1="272.25"
       x1="71.428001"
       inkscape:collect="always"
       gradientTransform="matrix(1.2595,0,0,1.3136603,1527.1,-6.8917816)">
      <stop
         id="stop3782"
         style="stop-color:#cfdee1;stop-opacity:1"
         offset="0" />
      <stop
         id="stop3784"
         style="stop-color:#1c7287;stop-opacity:1"
         offset="1" />
    </linearGradient>
    <radialGradient
       id="radialGradient4016"
       gradientUnits="userSpaceOnUse"
       cy="208.25"
       cx="201.71001"
       gradientTransform="matrix(1.0989736,0,0,0.94468729,1554.647,79.078804)"
       r="110.77"
       inkscape:collect="always">
      <stop
         id="stop3799"
         style="stop-color:#d09838;stop-opacity:1"
         offset="0" />
      <stop
         id="stop3801"
         style="stop-color:#e45527;stop-opacity:0.41999999"
         offset="1" />
    </radialGradient>
    <radialGradient
       id="radialGradient4034"
       gradientUnits="userSpaceOnUse"
       cy="271.94"
       cx="126.06"
       gradientTransform="matrix(1.0989736,0,0,0.94468729,1554.647,79.078804)"
       r="110.77"
       inkscape:collect="always">
      <stop
         id="stop3809"
         style="stop-color:#d09838;stop-opacity:1"
         offset="0" />
      <stop
         id="stop3811"
         style="stop-color:#f8b242;stop-opacity:0.80000001"
         offset="1" />
    </radialGradient>
    <linearGradient
       id="linearGradient4054"
       y2="20.466"
       xlink:href="#linearGradient3882"
       gradientUnits="userSpaceOnUse"
       x2="502.22"
       gradientTransform="matrix(0.87079,0,0,0.87079,1254.3,239.3)"
       y1="95.418999"
       x1="499.14999"
       inkscape:collect="always" />
    <linearGradient
       id="linearGradient4117"
       y2="297.94"
       gradientUnits="userSpaceOnUse"
       x2="486.95999"
       gradientTransform="matrix(1,0,0,1.0734804,1109.5,57.940495)"
       y1="131.94"
       x1="720.76001"
       inkscape:collect="always">
      <stop
         id="stop3791"
         style="stop-color:#165c6c;stop-opacity:1"
         offset="0" />
      <stop
         id="stop3793"
         style="stop-color:#2b8a9a;stop-opacity:0.5"
         offset="1" />
    </linearGradient>
    <radialGradient
       inkscape:collect="always"
       xlink:href="#radialGradient4034"
       id="radialGradient1477"
       gradientUnits="userSpaceOnUse"
       gradientTransform="matrix(1.0989736,0,0,0.94468729,1554.647,81.078801)"
       cx="126.06"
       cy="271.94"
       r="110.77" />
    <linearGradient
       inkscape:collect="always"
       xlink:href="#linearGradient4014"
       id="linearGradient2004"
       gradientUnits="userSpaceOnUse"
       gradientTransform="matrix(1.2595,0,0,1.3136603,1527.1,-6.8917816)"
       x1="71.428001"
       y1="272.25"
       x2="272.19925"
       y2="149.38121" />
    <linearGradient
       inkscape:collect="always"
       xlink:href="#linearGradient4117"
       id="linearGradient2006"
       gradientUnits="userSpaceOnUse"
       gradientTransform="matrix(1,0,0,1.0734804,1109.5,57.940495)"
       x1="720.76001"
       y1="131.94"
       x2="486.95999"
       y2="297.94" />
    <radialGradient
       inkscape:collect="always"
       xlink:href="#radialGradient4016"
       id="radialGradient2008"
       gradientUnits="userSpaceOnUse"
       gradientTransform="matrix(1.0989736,0,0,0.94468729,1554.647,81.078801)"
       cx="201.71001"
       cy="208.25"
       r="110.77" />
    <linearGradient
       inkscape:collect="always"
       xlink:href="#linearGradient923"
       id="linearGradient925"
       x1="1819.0143"
       y1="246.39664"
       x2="1765.5792"
       y2="287.56793"
       gradientUnits="userSpaceOnUse" />
  </defs>
  <sodipodi:namedview
     id="base"
     pagecolor="#ffffff"
     bordercolor="#666666"
     borderopacity="1.0"
     inkscape:pageopacity="0.0"
     inkscape:pageshadow="2"
     inkscape:zoom="1.2330084"
     inkscape:cx="447.92842"
     inkscape:cy="6.8229468"
     inkscape:document-units="mm"
     inkscape:current-layer="g2002"
     inkscape:document-rotation="0"
     showgrid="false"
     inkscape:window-width="1736"
     inkscape:window-height="1024"
     inkscape:window-x="48"
     inkscape:window-y="25"
     inkscape:window-maximized="0"
     inkscape:snap-global="false"
     fit-margin-top="0"
     fit-margin-left="0"
     fit-margin-right="0"
     fit-margin-bottom="0" />
  <metadata
     id="metadata5">
    <rdf:RDF>
      <cc:Work
         rdf:about="">
        <dc:format>image/svg+xml</dc:format>
        <dc:type
           rdf:resource="http://purl.org/dc/dcmitype/StillImage" />
        <dc:title />
      </cc:Work>
    </rdf:RDF>
  </metadata>
  <g
     inkscape:label="Layer 1"
     inkscape:groupmode="layer"
     id="layer1"
     transform="translate(-8.5084705,-20.676556)">
    <g
       id="g4221"
       transform="matrix(0.26458333,0,0,0.26458333,-415.29317,-22.961173)">
      <g
         id="g2002">
        <ellipse
           id="path2998"
           style="fill:url(#linearGradient2004);stroke-width:1.2863"
           cx="1742.5629"
           cy="285.99142"
           rx="139.521"
           ry="119.73213" />
        <path
           id="path3007"
           d="m 1742.6,164.93 c -77.642,0 -140.83,54.0433 -140.83,121.03492 0,66.99376 63.186,121.07786 140.83,121.07786 77.642,0 140.87,-54.08516 140.87,-121.07786 0,-66.99376 -63.225,-121.03492 -140.87,-121.03492 z m 0,2.74897 c 76.468,0 138.23,53.10186 138.23,118.28681 0,65.1871 -61.761,118.32975 -138.23,118.32975 -76.468,0 -138.19,-53.14265 -138.19,-118.32975 0,-65.1871 61.722,-118.28681 138.19,-118.28681 z"
           style="color:#000000;text-indent:0;text-transform:none;fill:url(#linearGradient2006);stroke-width:1.03609"
           inkscape:connector-curvature="0" />
        <path
           style="fill:#e6e6e6;fill-opacity:1;stroke:none;stroke-width:1.17016px;stroke-linecap:butt;stroke-linejoin:miter;stroke-opacity:1"
           d="m 1671.2531,232.40877 8.5047,-14.45282 10.5061,-0.43206 4.0708,11.37633 -8.9369,14.51954 z"
           id="path911"
           sodipodi:nodetypes="cccccc" />
        <path
           style="fill:#e6e6e6;fill-opacity:1;stroke:none;stroke-width:0.8;stroke-dashoffset:10.5827;stroke-opacity:1;stop-color:#000000"
           d="m 1706.5625,320.32089 c -0.072,0.11692 -0.1443,0.23622 -0.2544,0.37819 -0.6109,0.6091 -0.8257,0.98389 -1.6298,1.16718 -0.237,0.0548 -0.4916,-0.0157 -0.7372,-0.0494 -0.08,-0.0112 -0.5302,-0.1648 -0.5583,-0.1149 -0.1103,0.20367 -0.1616,0.45802 -0.2422,0.6872 -0.2374,0.21423 -0.4232,0.56836 -0.7121,0.64241 -1.1112,0.28759 -2.0643,-0.37323 -3.0274,-1.2175 -1.8158,-1.59152 -3.2039,-3.82195 -4.6291,-5.98267 l -0.45,38.86401 c -0.1206,10.40169 2.4174,19.17531 5.6922,19.673 3.2749,0.49768 6.0098,-7.47525 6.1304,-17.87692 z"
           id="path907" />
        <ellipse
           style="fill:#e6e6e6;fill-opacity:1;stroke:none;stroke-width:1.14441;stroke-dashoffset:10.5827;stroke-opacity:1;stop-color:#000000"
           id="path1577"
           cx="2992.2964"
           cy="3606.377"
           rx="10.311907"
           ry="28.838291"
           transform="matrix(0.11955292,-0.99282783,0.38085647,0.92463417,0,0)" />
        <rect
           style="fill:#e6e6e6;fill-opacity:1;stroke:none;stroke-width:0.804088;stroke-dashoffset:10.5827;stroke-opacity:1;stop-color:#000000"
           id="rect1453"
           width="16.062399"
           height="53.185043"
           x="3060.9272"
           y="1978.6614"
           rx="10.043316"
           ry="11.183678"
           transform="matrix(0.8660622,-0.49993627,-0.47028411,0.88251507,0,0)" />
        <path
           style="fill:#e6e6e6;fill-opacity:1;stroke:none;stroke-width:0.820626;stroke-dashoffset:10.5827;stroke-opacity:1;stop-color:#000000"
           d="m 1772.3152,335.16887 c -1.1756,-0.0274 -2.2343,0.27835 -3.0976,0.9539 l -1.3637,1.06642 c -2.3416,1.83256 -2.6233,5.90852 -1.095,10.43437 0.3396,-0.58761 0.6884,-0.9732 1.2749,-1.48359 0.192,-0.16704 0.4432,-0.27684 0.6043,-0.4711 0.6212,-0.74893 0.7909,-1.79225 1.6573,-2.38828 0.4996,-0.47301 1.3652,-1.37626 2.0271,-1.66875 2.1267,-0.93979 4.3929,-1.19074 6.6908,-1.22813 0.8432,-0.0137 1.6906,0.0128 2.5376,0.0328 -3.0525,-3.25374 -6.4666,-5.18327 -9.2357,-5.24766 z"
           id="rect1455" />
        <ellipse
           style="fill:#e6e6e6;fill-opacity:1;stroke:none;stroke-width:0.996486;stroke-dashoffset:10.5827;stroke-opacity:1;stop-color:#000000"
           id="ellipse1579"
           cx="3092.999"
           cy="2727.2388"
           rx="8.8426113"
           ry="25.497894"
           transform="matrix(0.58583585,-0.81042973,-0.01479716,0.99989052,0,0)" />
        <path
           id="path4539"
           sodipodi:nodetypes="ssssssccsssssccsssssss"
           style="fill:#999999;stroke-width:0.752989"
           inkscape:connector-curvature="0"
           d="m 1892.2285,167.62179 c -0.7956,0.0345 -1.5997,0.15807 -2.3793,0.35277 -2.9226,0.7299 -5.3258,3.40018 -7.8378,5.33241 -8.5697,6.59192 -16.8087,13.70064 -24.5492,21.25944 -6.8478,6.68661 -12.3996,14.52915 -19.2589,21.20485 -10.0088,9.74059 -20.508,19.13288 -31.7792,27.33579 -5.1682,3.76114 -10.549,7.42266 -16.2834,9.92087 -18.7926,5.50044 -26.1489,8.75588 -43.3114,16.95174 -5.1175,3.66068 -10.4654,7.7032 -13.8522,12.89666 -2.2607,3.4666 -4.1947,7.69626 -3.7313,11.29177 0.8014,6.21892 5.3286,11.48338 10.7922,14.14279 4.8055,2.33955 11.362,1.09863 17.2348,0.57237 6.2535,-0.5604 12.6476,-1.86884 18.8784,-3.9459 5.1147,-1.70506 10.0676,-4.29176 14.9356,-6.90609 12.3013,-7.87618 12.2094,-8.66185 19.4227,-18.20567 7.1741,-9.45175 14.6891,-18.68797 22.1023,-27.98615 8.2698,-10.37308 16.1614,-21.02584 24.9614,-31.01653 6.0111,-6.82473 12.4081,-13.35364 18.9629,-19.70136 6.506,-6.30048 14.4535,-11.26138 20.1785,-18.21347 1.8938,-2.29975 4.2151,-4.86297 4.5029,-7.54864 0.2521,-2.35244 -0.8768,-4.68275 -2.595,-5.97497 -1.6617,-1.24982 -4.0073,-1.86623 -6.394,-1.76268 z" />
        <path
           style="fill:#e6e6e6;fill-opacity:1;stroke:none;stroke-width:1.2px;stroke-linecap:butt;stroke-linejoin:miter;stroke-opacity:1"
           d="m 1825.2753,285.49022 18.7117,-12.62337 11.7845,0.37725 -2.9421,10.72866 -19.2284,12.65272 z"
           id="path903"
           sodipodi:nodetypes="cccccc" />
        <ellipse
           id="path2997"
           style="fill:url(#radialGradient2008);stroke-width:1.1233"
           cx="1742.6486"
           cy="291.70053"
           rx="121.73871"
           ry="104.64825" />
        <path
           style="fill:#e6e6e6;fill-opacity:1;stroke:none;stroke-width:1.17016px;stroke-linecap:butt;stroke-linejoin:miter;stroke-opacity:1"
           d="m 1665.9398,255.57814 10.5487,1.23765 10.4373,-15.99482 c -3.6462,-10.77907 -8.3617,-12.89967 -13.4524,-11.98289 l -9.535,12.71928 z"
           id="path913"
           sodipodi:nodetypes="cccccc" />
        <path
           style="fill:#e6e6e6;fill-opacity:1;stroke:none;stroke-width:0.8;stroke-dashoffset:10.5827;stroke-opacity:1;stop-color:#000000"
           d="m 1702.8687,301.23895 c -0.6965,-1.05554 -1.4684,-1.69726 -2.2872,-1.8217 -3.2747,-0.4976 -6.0097,7.47532 -6.1303,17.87693 l -0.085,7.24193 c 1.4936,2.24002 2.9147,4.60737 4.8106,6.26203 0.9095,0.79377 1.7864,1.41939 2.8241,1.11473 0.2242,-0.0655 0.3452,-0.3792 0.5186,-0.56795 0.2636,-1.31849 0.9762,-0.41462 1.731,-0.59762 0.6611,-0.1601 0.9346,-0.57621 1.4335,-1.08903 0.4523,-0.5545 0.4866,-0.83128 0.2734,-1.59299 -0.088,-0.31436 0.079,-0.45187 0.209,-0.31923 10e-5,-2.5e-4 0.01,0.0153 0.01,0.0184 l 0.099,-8.67237 c 0.091,-7.80119 -1.3151,-14.686 -3.4051,-17.85131 z"
           id="path909" />
        <path
           style="fill:#e6e6e6;fill-opacity:1;stroke:none;stroke-width:1.2px;stroke-linecap:butt;stroke-linejoin:miter;stroke-opacity:1"
           d="m 1804.389,306.33924 10.7452,1.91107 21.8307,-13.89472 c 3.018,-10.1499 -0.7661,-12.44104 -6.9364,-11.97531 l -18.7123,10.95833 z"
           id="path905"
           sodipodi:nodetypes="cccccc" />
        <path
           style="fill:#e6e6e6;fill-opacity:1;stroke:none;stroke-width:0.8;stroke-dashoffset:10.5827;stroke-opacity:1;stop-color:#000000"
           d="m 1670.7961,319.15161 c -1.389,-0.0361 -2.8601,0.0527 -4.3734,0.24374 2.4152,2.00603 4.0982,3.79741 4.5585,7.00078 0.4911,3.12602 0.1367,0.70002 0.4594,3.29532 0.05,0.40595 0.1469,0.80772 0.1641,1.2164 0.097,2.30105 -0.098,4.58694 -0.6562,6.81328 7.542,-3.00228 12.3534,-8.23405 11.1796,-12.70781 -0.9387,-3.57817 -5.4481,-5.70892 -11.332,-5.86171 z"
           id="rect1564" />
        <path
           style="fill:#e6e6e6;fill-opacity:1;stroke:none;stroke-width:0.8;stroke-dashoffset:10.5827;stroke-opacity:1;stop-color:#000000"
           d="m 1793.2301,308.42452 c -7.6107,-1.42403 -13.7538,-1.89047 -19.3585,-1.93804 v 2e-5 c -7.206,-0.0612 -11.9884,0.99388 -12.3844,3.11016 -0.7039,3.76226 12.733,9.41305 30.1289,12.66796 l 12.5181,2.34141 c 5.1566,0.96486 11.2459,1.3016 15.6186,1.63071 -3.0592,-0.56365 -4.6341,-1.09863 -7.6334,-1.94296 -2.8938,-1.13356 -8.2754,-1.70268 -10.8938,-3.40259 -3.974,-2.58 -5.4949,-6.46277 -7.0782,-10.71797 -0.1355,-0.36422 -0.23,-1.16105 -0.029,-1.14197 z"
           id="rect1511"
           sodipodi:nodetypes="csscccccsscc" />
        <path
           style="fill:#e6e6e6;fill-opacity:1;stroke:none;stroke-width:1.2px;stroke-linecap:butt;stroke-linejoin:miter;stroke-opacity:1"
           d="m 1754.0043,241.66732 14.5037,14.50368 1.0744,11.8178 -10.7435,0.53718 -14.5952,-15.00696 z"
           id="path1509"
           sodipodi:nodetypes="cccccc" />
        <path
           style="fill:#e6e6e6;fill-opacity:1;stroke:none;stroke-width:1.2px;stroke-linecap:butt;stroke-linejoin:miter;stroke-opacity:1"
           d="m 1738.7937,285.57868 0.9442,2.67112 0.055,6.39381 -42.2252,54.5605 -8.881,-0.81193 7.774,-6.14651 z"
           id="path1483"
           sodipodi:nodetypes="ccccccc" />
        <path
           style="fill:#e6e6e6;fill-opacity:1;stroke:none;stroke-width:0.8;stroke-dashoffset:10.5827;stroke-opacity:1;stop-color:#000000"
           d="m 1778.2008,339.78841 c -2.1539,0.0278 -4.2756,0.26437 -6.2601,1.2 -0.4731,0.22303 -1.3724,1.19283 -1.7109,1.53282 -0.317,0.44842 -0.6512,0.88558 -0.9516,1.3453 -0.194,0.2971 -0.3085,0.64358 -0.5297,0.9211 -0.1942,0.24388 -0.4716,0.40955 -0.6984,0.62344 -0.5695,0.53679 -0.9063,0.87933 -1.2188,1.575 -0.028,0.091 -0.058,0.18864 -0.086,0.28125 0.6877,1.89732 1.6577,3.85194 2.918,5.73984 l 6.3562,9.52031 c 1.0279,1.5398 2.1502,2.88553 3.3071,4.0289 1.1711,-1.88199 2.6935,-3.51156 4.3992,-4.95468 0.7122,-0.60253 1.8829,-1.5249 2.8266,-1.86328 0.5504,-0.19738 1.1408,-0.25883 1.7109,-0.38906 1.3932,-0.36318 2.8179,-0.44163 4.2352,-0.63751 -0.6791,-2.28248 -1.7945,-4.69407 -3.3376,-7.00547 l -6.3562,-9.5203 c -0.5664,-0.84854 -1.1679,-1.61854 -1.7812,-2.35078 -0.9407,-0.0264 -1.8844,-0.059 -2.8219,-0.0469 z"
           id="path1473" />
        <path
           style="fill:url(#linearGradient925);stroke-width:0.752989;fill-opacity:1"
           d="m 1824.4755,227.24331 c -6.0038,5.32244 -12.2024,10.41937 -18.6602,15.11914 -5.1681,3.76113 -10.5487,7.42365 -16.2832,9.92187 -18.7934,5.5001 -26.6803,8.22222 -43.3105,16.95117 -5.1175,3.66069 -10.4647,7.70304 -13.8516,12.89649 -2.2606,3.4666 -4.1958,7.69745 -3.7324,11.29297 0.8014,6.21892 5.3294,11.48317 10.793,14.14258 4.8054,2.33955 11.3616,1.09852 17.2344,0.57226 6.2535,-0.56039 12.648,-1.87021 18.8789,-3.94726 5.1147,-1.70506 10.0674,-4.28997 14.9355,-6.9043 11.2363,-7.87642 12.2084,-8.66297 19.4219,-18.20704 7.174,-9.45175 14.6903,-18.68814 22.1035,-27.98632 3.7923,-4.75673 7.5084,-9.56802 11.2657,-14.35156 -2.0806,-0.24546 -4.1982,-0.28599 -6.2325,-0.78321 -4.1163,-1.0061 -8.1658,-2.50791 -11.0527,-5.78125 -0.8772,-0.99459 -1.3709,-1.94801 -1.5098,-2.93554 z"
           id="path1970" />
        <path
           style="fill:#e6e6e6;fill-opacity:1;stroke:none;stroke-width:0.8;stroke-dashoffset:10.5827;stroke-opacity:1;stop-color:#000000"
           d="m 1804.4417,249.75811 -9.5578,31.2164 c -2.7758,9.06711 -2.2826,15.36954 1.1062,14.13047 3.3888,-1.23907 8.3524,-9.53759 11.1281,-18.60469 l 6.0352,-19.71094 c -0.5403,1.2715 -1.0757,2.0692 -2.6274,2.6086 -0.6666,0.11532 -1.0655,0.24258 -1.7531,0.12656 -1.1795,-0.19899 -2.8171,-0.78459 -3.7008,-1.60781 -0.1427,-0.13296 -0.1863,-0.34396 -0.2789,-0.51562 -0.087,-0.29774 -0.2128,-0.58647 -0.2601,-0.89297 -0.075,-0.48533 0.029,-0.98317 0.033,-1.47423 0.011,-1.31499 -0.015,-2.62945 -0.096,-3.94218 -0.019,-0.4484 -0.024,-0.89067 -0.028,-1.33359 z"
           id="path1505" />
        <path
           style="fill:#e6e6e6;fill-opacity:1;stroke:none;stroke-width:0.8;stroke-dashoffset:10.5827;stroke-opacity:1;stop-color:#000000"
           d="m 1661.0078,260.50156 c -4e-4,0.13737 0,0.27677 -0.02,0.46152 -0.2039,0.90122 -0.1919,1.32933 -0.7827,2.08749 -0.1737,0.22403 -0.4277,0.37505 -0.6549,0.54445 -0.074,0.055 -0.5384,0.3021 -0.5364,0.35873 0.012,0.2276 0.1008,0.44394 0.1515,0.66585 -0.091,0.33471 -0.065,0.72573 -0.273,1.0038 -0.7985,1.07141 -1.9563,1.36203 -3.2183,1.53354 -2.3791,0.32343 -4.7262,-0.13119 -7.0686,-0.50844 l 19.8702,27.26108 c 5.318,7.29636 12.0566,11.37849 15.1109,9.1524 3.0543,-2.22612 1.2333,-9.89312 -4.0847,-17.18946 z"
           id="path1449" />
        <ellipse
           id="path3805"
           style="fill:url(#radialGradient1477);fill-opacity:0.51071;stroke-width:1.1233"
           cx="1742.6486"
           cy="291.70053"
           rx="121.73871"
           ry="104.64825" />
        <path
           style="fill:#cccccc;stroke-width:0.752989"
           d="m 1892.5126,166.87221 c -0.2958,-0.009 -0.5942,-0.007 -0.8926,0.006 -0.7956,0.0345 -1.5993,0.15882 -2.3789,0.35352 -2.9226,0.7299 -5.3259,3.39981 -7.8379,5.33203 -8.5697,6.59193 -16.8083,13.70097 -24.5488,21.25977 -6.8478,6.68661 -12.4005,14.52742 -19.2598,21.20312 -4.1254,4.01484 -8.3387,7.96515 -12.6504,11.80274 0.053,0.9749 0.4846,1.91865 1.3672,2.92968 2.8097,3.21857 6.7638,4.68318 10.793,5.67188 2.0751,0.50923 4.2392,0.53117 6.3593,0.79688 0.066,0.008 0.1244,0.0238 0.1739,0.0449 4.3168,-5.489 8.6955,-10.93394 13.3281,-16.19336 6.0111,-6.82473 12.408,-13.35346 18.9629,-19.70118 6.506,-6.30047 14.4528,-11.26276 20.1777,-18.21484 1.8939,-2.29976 4.2161,-4.8612 4.5039,-7.54688 0.2521,-2.35243 -0.8775,-4.68433 -2.5956,-5.97656 -1.4541,-1.09359 -3.4314,-1.70187 -5.502,-1.76758 z"
           id="path4529" />
        <path
           style="fill:#e6e6e6;fill-opacity:1;stroke:none;stroke-width:0.8;stroke-dashoffset:10.5827;stroke-opacity:1;stop-color:#000000"
           d="m 1647.9106,250.18958 c -1.1445,-0.1841 -2.1378,-0.0224 -2.9014,0.53412 -3.0542,2.22611 -1.2332,9.8931 4.0847,17.18946 l 3.702,5.0804 c 2.4422,0.37839 4.8888,0.90192 7.3692,0.55929 1.1899,-0.16437 2.2643,-0.41952 2.9912,-1.44507 0.1572,-0.2213 0.097,-0.53352 0.1466,-0.80031 -0.4622,-1.11975 0.6171,-1.05339 1.1659,-1.77258 0.4808,-0.62981 0.4973,-1.13255 0.6559,-1.8793 0.097,-0.73892 -0.018,-0.95745 -0.5969,-1.31749 -0.2389,-0.14861 -0.1682,-0.37476 0.012,-0.38508 0,-3e-4 0.013,0.006 0.018,0.005 l -4.4352,-6.08208 c -3.9884,-5.47226 -8.7761,-9.13564 -12.2095,-9.68652 z"
           id="rect1283" />
        <path
           style="fill:#e6e6e6;fill-opacity:1;stroke:none;stroke-width:0.819826;stroke-dashoffset:10.5827;stroke-opacity:1;stop-color:#000000"
           d="m 1792.4559,358.52628 c -1.4661,0.20666 -2.9415,0.28496 -4.3833,0.65809 -0.5343,0.11511 -1.086,0.16534 -1.6019,0.34587 -0.9308,0.32568 -2.0762,1.23432 -2.7717,1.8206 -1.745,1.47061 -3.2926,3.1359 -4.4723,5.06787 3.8611,3.61346 8.0315,4.91096 10.5273,2.85578 l 1.3258,-1.09283 c 2.1094,-1.73698 2.506,-5.43942 1.3761,-9.65538 z"
           id="path1475" />
        <path
           style="fill:#e6e6e6;fill-opacity:1;stroke:none;stroke-width:1.2px;stroke-linecap:butt;stroke-linejoin:miter;stroke-opacity:1"
           d="m 1686.7046,343.09639 44.4074,-56.01989 7.8805,-1.38302 0.9387,2.6429 -44.0957,55.43451 c -6.9708,4.50313 -5.8386,6.90198 -9.1309,-0.6745 z"
           id="path1479"
           sodipodi:nodetypes="cccccc" />
        <path
           style="fill:#e6e6e6;fill-opacity:1;stroke:none;stroke-width:0.8;stroke-dashoffset:10.5827;stroke-opacity:1;stop-color:#000000"
           d="m 1817.7785,225.42731 c -0.189,0.0197 -0.3882,0.0679 -0.6,0.14531 -3.3888,1.23907 -8.3524,9.53525 -11.1281,18.60235 l -3.7126,12.12655 c -0.04,1.01405 -0.041,2.03138 0,3.06798 0.082,1.32017 0.1068,2.64317 0.096,3.96562 0,0.49504 -0.1092,0.9968 -0.032,1.48594 0.04,0.25297 0.1599,0.48778 0.2392,0.73125 0.079,0.13914 0.1152,0.31337 0.2366,0.41719 0.7899,0.67418 2.3724,1.19232 3.3915,1.36172 0.5487,0.0912 0.9919,-0.0397 1.5234,-0.13828 1.5497,-0.56868 1.8818,-1.34785 2.4375,-2.74453 0.102,-0.30583 0.2009,-0.61059 0.3023,-0.91642 0.1188,-0.35649 0.4133,-0.35853 0.4969,-0.14297 l 7.2516,-23.68593 c 2.6022,-8.50041 2.3301,-14.57118 -0.5062,-14.27578 z"
           id="rect1451" />
        <path
           style="fill:#e6e6e6;fill-opacity:1;stroke:none;stroke-width:1.2px;stroke-linecap:butt;stroke-linejoin:miter;stroke-opacity:1"
           d="m 1731.2735,227.65606 -0.5371,11.28063 16.1152,17.18955 c 10.1926,-0.27538 11.9479,-4.76954 10.7434,-10.74347 l -12.8922,-15.04085 z"
           id="path1507"
           sodipodi:nodetypes="cccccc" />
        <path
           style="fill:#e6e6e6;fill-opacity:1;stroke:none;stroke-width:0.8;stroke-dashoffset:10.5827;stroke-opacity:1;stop-color:#000000"
           d="m 1788.2108,307.71564 c 0.121,0.012 0.2557,0.67898 0.3469,0.89353 1.2247,2.88309 2.1149,6.10117 4.3617,8.41875 2.8633,2.95345 6.8621,4.21033 10.5774,5.6625 4.1793,1.16508 8.4855,1.74032 12.7218,2.63437 0.1518,0.032 0.2994,0.0823 0.45,0.11952 8.0734,0.23513 13.5471,-0.80413 13.9711,-3.07031 0.704,-3.76226 -12.7329,-9.41071 -30.1289,-12.66563 l -12.2083,-2.3414 z"
           id="path1562" />
        <path
           style="fill:#e6e6e6;fill-opacity:1;stroke:none;stroke-width:0.8;stroke-dashoffset:10.5827;stroke-opacity:1;stop-color:#000000"
           d="m 1666.8479,319.11412 c -1.1946,0.17583 -2.4153,0.42157 -3.6493,0.74532 -9.7152,2.54881 -16.4381,8.79224 -15.0726,13.99687 1.3654,5.20463 10.2862,7.34179 20.0016,4.79297 1.181,-0.30985 2.3149,-0.67698 3.3984,-1.0875 0.6086,-2.28822 0.8222,-4.64274 0.7195,-7.0125 -0.017,-0.38927 -0.1104,-0.77122 -0.1594,-1.15781 -0.339,-2.69749 0.049,-0.0532 -0.4593,-3.28594 -0.4968,-3.35689 -2.4023,-5.29557 -4.7789,-6.99141 z"
           id="path1575" />
        <path
           style="fill:#e6e6e6;fill-opacity:1;stroke:none;stroke-width:0.8;stroke-dashoffset:10.5827;stroke-opacity:1;stop-color:#000000"
           d="m 1742.2841,263.02433 c -1.495,-0.68512 -3.0913,-1.29863 -4.7435,-1.84177 2.402,2.90622 4.0359,5.27865 4.2069,8.32211 0.2122,2.98968 0.076,0.68206 0.1608,3.12418 0.013,0.38177 0.076,0.7819 0.053,1.15065 -0.1292,2.0763 -0.572,4.00189 -1.4005,5.7041 8.4429,0.89759 14.166,-1.45658 13.3542,-5.95673 -0.6493,-3.59921 -5.2982,-7.60043 -11.6313,-10.50254 z"
           id="path915" />
        <path
           style="fill:#e6e6e6;fill-opacity:1;stroke:none;stroke-width:0.8;stroke-dashoffset:10.5827;stroke-opacity:1;stop-color:#000000"
           d="m 1738.0279,261.13436 c -1.3069,-0.40667 -2.6489,-0.76392 -4.0133,-1.05857 -10.7416,-2.31986 -18.63,0.0281 -17.6855,5.2634 0.9441,5.23525 10.3523,11.31686 21.0941,13.6368 1.3057,0.282 2.5666,0.49129 3.7773,0.63859 0.8893,-1.73312 1.359,-3.71052 1.489,-5.85014 0.021,-0.35152 -0.041,-0.73252 -0.054,-1.09673 -0.092,-2.53997 0.058,-0.0239 -0.1616,-3.11586 -0.1948,-3.19611 -2.0538,-5.80317 -4.4457,-8.41749 z"
           id="path917" />
      </g>
    </g>
  </g>
</svg>
